<svg id="ILUSTRASI" xmlns="http://www.w3.org/2000/svg" width="455.134" height="428" viewBox="0 0 455.134 428">
    <g id="cowogan" transform="translate(0 13.308)">
        <path id="Vector" d="M55.211,120.391a11.694,11.694,0,0,1-3.515-3.71,10.627,10.627,0,0,1-1.471-4.724,10.478,10.478,0,0,1,.85-4.85L0,6.669,25.91,0l42.1,100.946a11.907,11.907,0,0,1,6.116,5.847,10.507,10.507,0,0,1,.332,8.091,11.683,11.683,0,0,1-5.619,6.251,13.439,13.439,0,0,1-8.733,1.256h0A12.957,12.957,0,0,1,55.211,120.391Z" transform="translate(156.402 106.698)" fill="#ffe2d5"/>
        <path id="Vector-2" data-name="Vector" d="M14.126,49.894,20.845,0H0L0,49.894Z" transform="translate(117.597 339.464)" fill="#ffe2d5"/>
        <path id="Vector-3" data-name="Vector" d="M44.389,0V15.707H17.15a17.982,17.982,0,0,1-12.127-4.6A15.068,15.068,0,0,1,0,0H44.389Z" transform="translate(158.962 401.368) rotate(179.998)" fill="#2f2e41"/>
        <path id="Vector-4" data-name="Vector" d="M12.982,50.957,40.611,7.517,21.449,0,0,45.864Z" transform="translate(44.185 329.551)" fill="#ffe2d5"/>
        <path id="Vector-5" data-name="Vector" d="M43.831,0V15.939h-26.9A17.486,17.486,0,0,1,4.96,11.271,15.479,15.479,0,0,1,0,0H43.831Z" transform="matrix(-0.931, -0.365, 0.365, -0.931, 77.509, 401.57)" fill="#2f2e41"/>
        <path id="Vector-6" data-name="Vector" d="M28.3,51.829C12.668,51.829,0,40.227,0,25.915S12.668,0,28.3,0s28.3,11.6,28.3,25.915S43.922,51.829,28.3,51.829Z" transform="translate(124.224 14.42)" fill="#ffe2d5"/>
        <path id="Vector-7" data-name="Vector" d="M69.206,189.906a5.236,5.236,0,0,1-3.2-1.822,4.434,4.434,0,0,1-.991-3.326l10.31-92.068a3.461,3.461,0,0,0-.7-2.485,4.05,4.05,0,0,0-2.3-1.467,4.37,4.37,0,0,0-2.788.26,3.854,3.854,0,0,0-1.93,1.861L22.6,187.051a4.761,4.761,0,0,1-1.157,1.538,5.26,5.26,0,0,1-1.715,1.011,5.624,5.624,0,0,1-4-.081L3.084,184.371a4.969,4.969,0,0,1-2.644-2.42,4.362,4.362,0,0,1-.168-3.42L31.056,93.946a3.429,3.429,0,0,0,.179-.733L41.228,15.93a4.536,4.536,0,0,1,1.025-2.321,5.158,5.158,0,0,1,2.172-1.52L75.977.349A5.63,5.63,0,0,1,78.924.088a5.357,5.357,0,0,1,2.622,1.258l39.826,35.516a4.683,4.683,0,0,1,1.337,1.992,4.347,4.347,0,0,1,.132,2.335L90.809,188.88a4.713,4.713,0,0,1-1.8,2.742,5.5,5.5,0,0,1-3.288,1.081,5.608,5.608,0,0,1-.966-.083h0Z" transform="translate(47.323 184.541)" fill="#2f2e41"/>
        <path id="Vector-8" data-name="Vector" d="M23.657,130.365c-2.73.4-4.3,3.9-5.972,7.595-2.276,5.048-4.856,10.769-11.214,11.217a5.811,5.811,0,0,1-2.937-.3A5.305,5.305,0,0,1,1.214,147.2c-5-6.813,7-29.358,8.091-31.383L8.743,9.19a4.436,4.436,0,0,1,.718-2.447,5,5,0,0,1,1.993-1.758C44.421-11.3,88.937,17.02,97.525,22.863a4.85,4.85,0,0,1,1.6,1.79,4.395,4.395,0,0,1,.484,2.271c-1.036,17.859-6.206,107.959-6.206,128.058,0,5.564-2.1,9.1-6.228,10.507a13.459,13.459,0,0,1-4.348.653c-12.61,0-33.263-13.251-46.885-27.7C30.431,132.6,26.408,129.946,23.657,130.365Z" transform="translate(78.409 66.287)" fill="#7547c4"/>
        <path id="Vector-9" data-name="Vector" d="M2.909,62.827a4.4,4.4,0,0,1-.664-2.142L.012,12.925A11.71,11.71,0,0,1,2.86,4.774,13.756,13.756,0,0,1,10.8.256a14.628,14.628,0,0,1,9.241,1.269,12.8,12.8,0,0,1,6.141,6.451L42.891,48.087a4.386,4.386,0,0,1-.114,3.632,5.027,5.027,0,0,1-2.881,2.5L9.273,64.918a5.569,5.569,0,0,1-2.411.29,5.437,5.437,0,0,1-2.286-.759h0A4.9,4.9,0,0,1,2.909,62.827Z" transform="translate(155.784 88.507)" fill="#7547c4"/>
        <path id="Vector-10" data-name="Vector" d="M3.7,124.411a10.7,10.7,0,0,1-1.7-4.658,10.442,10.442,0,0,1,.607-4.881,11.219,11.219,0,0,1,2.8-4.187L0,0,26.729,2.883l-3.1,108.023a10.691,10.691,0,0,1,.159,15.136,12.82,12.82,0,0,1-7.8,3.817,13.343,13.343,0,0,1-8.6-1.889h0A11.833,11.833,0,0,1,3.7,124.411Z" transform="translate(75.151 99.611)" fill="#ffe2d5"/>
        <path id="Vector-11" data-name="Vector" d="M.059,56.045a4.322,4.322,0,0,1,.214-2.218L16.778,8.476A12.66,12.66,0,0,1,22.612,1.79,14.579,14.579,0,0,1,31.785.16a13.882,13.882,0,0,1,8.14,4.2A11.793,11.793,0,0,1,43.151,12.4V55.328a4.56,4.56,0,0,1-1.52,3.356,5.441,5.441,0,0,1-3.664,1.392H5.191a5.517,5.517,0,0,1-2.366-.516A5.029,5.029,0,0,1,.985,58.1,4.49,4.49,0,0,1,.059,56.045Z" transform="translate(62.997 70.981)" fill="#7547c4"/>
        <path id="Vector-12" data-name="Vector" d="M19.066,58.848a5.852,5.852,0,0,1-3.59-1.418C9.412,52.239,4.294,46.031,1.7,38.841-1.264,30.6-.506,20.954,5.178,14.015c4.8-5.867,12.41-9.181,19.9-11.772A34.993,34.993,0,0,1,34.249.062a13.447,13.447,0,0,1,8.933,2.3,7.26,7.26,0,0,1,2.625,3.532,6.665,6.665,0,0,1,0,4.273A30.812,30.812,0,0,1,59.4,3.722a17.874,17.874,0,0,1,9.723.369c4.344,1.636,7.166,5.633,8.466,9.767a16.224,16.224,0,0,1,.251,9.717,11.433,11.433,0,0,1-2.427,4.349,12.7,12.7,0,0,1-4.147,3.071c-3.975,1.715-8.691,1.068-12.847-.238s-8.1-3.232-12.394-4.065-9.261-.347-12.3,2.557c-2.142,2.045-2.985,4.921-3.751,7.667l-3.985,14.28A16.946,16.946,0,0,1,23.5,57.076a3.668,3.668,0,0,1-.709.688h0A5.943,5.943,0,0,1,19.066,58.848Z" transform="translate(111.454)" fill="#2f2e41"/>
        <path id="Vector-13" data-name="Vector" d="M5.775,49.733a4.24,4.24,0,0,1-2.594-.877,3.614,3.614,0,0,1-1.36-2.205,131.256,131.256,0,0,1,0-43.57A3.614,3.614,0,0,1,3.18.877,4.24,4.24,0,0,1,5.775,0H42.985a4.268,4.268,0,0,1,1.741.363,3.92,3.92,0,0,1,1.39,1.027,3.566,3.566,0,0,1,.776,1.5,3.39,3.39,0,0,1-.023,1.663,80.317,80.317,0,0,0,0,40.621,3.39,3.39,0,0,1,.023,1.663,3.566,3.566,0,0,1-.776,1.5,3.92,3.92,0,0,1-1.39,1.027,4.268,4.268,0,0,1-1.741.363Z" transform="translate(206.015 214.081)" fill="#ff8e4b"/>
        <path id="Vector-14" data-name="Vector" d="M1.152,2.111A1.208,1.208,0,0,1,.337,1.8,1.013,1.013,0,0,1,0,1.056,1.013,1.013,0,0,1,.337.309,1.208,1.208,0,0,1,1.152,0H186.631a1.208,1.208,0,0,1,.815.309,1.013,1.013,0,0,1,.337.746,1.013,1.013,0,0,1-.337.746,1.208,1.208,0,0,1-.815.309Z" transform="translate(0 400.581)" fill="#3f3d56"/>
    </g>
    <path id="Vector-15" data-name="Vector" d="M1.093,2A1.146,1.146,0,0,1,.32,1.709.961.961,0,0,1,0,1,.961.961,0,0,1,.32.293,1.146,1.146,0,0,1,1.093,0H177.041a1.146,1.146,0,0,1,.773.293.961.961,0,0,1,.32.708.961.961,0,0,1-.32.708,1.146,1.146,0,0,1-.773.293Z" transform="translate(277 425.997)" fill="#3f3d56"/>
    <g id="ciwisis" transform="translate(276)">
        <path id="Vector-16" data-name="Vector" d="M13.3,33.77a8.767,8.767,0,0,0,3.816-9.93L42.22,5.8,27.26,0,5.715,18.023A8.782,8.782,0,0,0,9.74,34.99h0A8.644,8.644,0,0,0,13.3,33.77Z" transform="translate(27.385 148.202)" fill="#ffe2d5"/>
        <path id="Vector-17" data-name="Vector" d="M0,83.465l.177-.2,33.6-38.493L59.863,0,82.517,2.905,82.851,9.8l-.068.1L46.793,64.343l-.038.033L8.327,97.778Z" transform="translate(42.734 73.53)" fill="#ff8e4b"/>
        <path id="Vector-18" data-name="Vector" d="M6.095,49.726,0,0H18.907l0,49.725Z" transform="translate(143.168 363.777)" fill="#ffe2d5"/>
        <path id="Vector-19" data-name="Vector" d="M0,16.705v-.526A16.232,16.232,0,0,1,4.71,4.739,16.028,16.028,0,0,1,16.078,0h25.23V16.707Z" transform="translate(124.033 409.293)" fill="#2f2e41"/>
        <path id="Vector-20" data-name="Vector" d="M0,49.79,5.547,0l18.39,4.419L12.46,52.785Z" transform="translate(39.358 360.297)" fill="#ffe2d5"/>
        <path id="Vector-21" data-name="Vector" d="M0,12.933l.121-.511A16.175,16.175,0,0,1,7.342,2.4,15.993,15.993,0,0,1,19.494.442h0l24.54,5.9L40.178,22.588Z" transform="translate(11.934 403.412)" fill="#2f2e41"/>
        <path id="Vector-22" data-name="Vector" d="M0,29.1A29.172,29.172,0,0,1,8.457,8.523a28.847,28.847,0,0,1,47.14,9.44A29.238,29.238,0,0,1,57.792,29.1V50.8a3.923,3.923,0,0,1-1.138,2.761A3.874,3.874,0,0,1,53.91,54.7H3.882a3.874,3.874,0,0,1-2.743-1.145A3.923,3.923,0,0,1,0,50.8H0Z" transform="translate(101.607)" fill="#2f2e41"/>
        <path id="Vector-23" data-name="Vector" d="M21.185,42.638A21.32,21.32,0,1,1,42.371,21.319,21.253,21.253,0,0,1,21.185,42.638Z" transform="translate(102.185 11.734)" fill="#ffe2d5"/>
        <path id="Vector-24" data-name="Vector" d="M6.7,6.745A22.811,22.811,0,0,1,22.858,0h4.313A22.811,22.811,0,0,1,43.326,6.745,23.1,23.1,0,0,1,50.029,23v.434H40.914l-3.109-8.76-.622,8.76h-4.71l-1.568-4.42-.314,4.42H0V23A23.1,23.1,0,0,1,6.7,6.745Z" transform="translate(94.77 7.83)" fill="#2f2e41"/>
        <path id="Vector-25" data-name="Vector" d="M4.788,81.093,1.773,45.58C-.553,39.08-.591,33.5,1.661,28.992A16.53,16.53,0,0,1,10.77,21.07l11.8-14.346A16.025,16.025,0,0,1,35.048.873l30.666.211c.74-.448,5.223-2.74,14.066,1.117,9.592,4.184,7.364,18.717,7.341,18.863L87.1,21.2l-.105.09-20.4,17.287L58.73,83.158Z" transform="translate(76.999 62.416)" fill="#ff8e4b"/>
        <path id="Vector-26" data-name="Vector" d="M19.344,46.813,0,259.789l21.856,6.717L60.545,99.9l44.9,161.875,26.2.66L113.8,75.634,98.215,3.308,44.86,0Z" transform="translate(37.357 139.693)" fill="#2f2e41"/>
        <path id="Vector-27" data-name="Vector" d="M16.788,39.689a8.765,8.765,0,0,0-2.646-10.308L24.1,0,8.588,4.057,1.508,31.335A8.822,8.822,0,0,0,3.007,42.9a8.754,8.754,0,0,0,13.781-3.215Z" transform="translate(135.785 172.711)" fill="#ffe2d5"/>
        <path id="Vector-28" data-name="Vector" d="M0,113.85,5.058,62.6.351,10.917,20.447,0l4.26,5.405,0,.123,2.257,65.351-.012.05L15.053,120.6Z" transform="translate(139.781 77.048)" fill="#ff8e4b"/>
        <path id="Vector-29" data-name="Vector" d="M3.767,51.459A3.723,3.723,0,0,1,.818,50.021a3.838,3.838,0,0,1-.709-3.276,91.053,91.053,0,0,0,0-42.03,3.838,3.838,0,0,1,.71-3.276A3.723,3.723,0,0,1,3.767,0H38.808a3.767,3.767,0,0,1,2.443.907,3.811,3.811,0,0,1,1.281,2.282,149.063,149.063,0,0,1,0,45.082,3.811,3.811,0,0,1-1.281,2.282,3.767,3.767,0,0,1-2.443.907Z" transform="translate(0 175.767)" fill="#7547c4"/>
    </g>
</svg>
