<svg xmlns="http://www.w3.org/2000/svg" width="59" height="42" viewBox="0 0 59 42">
  <path id="video" d="M8.845,42a8.77,8.77,0,0,1-6.254-2.636A9.079,9.079,0,0,1,0,33V9A9.077,9.077,0,0,1,2.591,2.636,8.77,8.77,0,0,1,8.845,0H35.383a8.77,8.77,0,0,1,6.254,2.636A9.077,9.077,0,0,1,44.228,9v4.35l6.34-6a4.945,4.945,0,0,1,5.455-.9,4.728,4.728,0,0,1,2.156,1.756A4.859,4.859,0,0,1,59,10.89V31.11a4.865,4.865,0,0,1-.809,2.677,4.734,4.734,0,0,1-2.14,1.762,4.877,4.877,0,0,1-2.034.45,5.081,5.081,0,0,1-3.42-1.35l-6.369-6V33a9.079,9.079,0,0,1-2.591,6.364A8.77,8.77,0,0,1,35.383,42Z" fill="#ff8e4b"/>
</svg>
