<svg id="Group_7" data-name="Group 7" xmlns="http://www.w3.org/2000/svg" width="618" height="514" viewBox="0 0 618 514">
  <path id="Vector" d="M45.681,0V17.111H12.816a13.023,13.023,0,0,1-9.062-3.639A12.236,12.236,0,0,1,0,4.686V0H45.681Z" transform="translate(248.841 513.318) rotate(179.997)" fill="#2f2e41"/>
  <path id="Vector-2" data-name="Vector" d="M45.681,0V17.111H12.816a13.167,13.167,0,0,1-4.9-.946,12.85,12.85,0,0,1-4.158-2.693A12.407,12.407,0,0,1,.976,9.441,12.1,12.1,0,0,1,0,4.686V0H45.681Z" transform="translate(190.747 513.318) rotate(179.997)" fill="#2f2e41"/>
  <path id="Vector-3" data-name="Vector" d="M.908,1.76A.922.922,0,0,1,.266,1.5a.861.861,0,0,1,0-1.245A.922.922,0,0,1,.908,0H346.743a.923.923,0,0,1,.642.258.861.861,0,0,1,0,1.245.923.923,0,0,1-.642.258Z" transform="translate(0 512.24)" fill="#cacaca"/>
  <g id="Group_6" data-name="Group 6" transform="translate(100.323)">
    <path id="Path_141" data-name="Path 141" d="M4.56,362.068a4.64,4.64,0,0,1-3.223-1.3A4.359,4.359,0,0,1,0,357.647V4.421A4.359,4.359,0,0,1,1.337,1.3,4.64,4.64,0,0,1,4.56,0H396.883a4.64,4.64,0,0,1,3.223,1.3,4.36,4.36,0,0,1,1.337,3.124V357.647a4.359,4.359,0,0,1-1.337,3.125,4.639,4.639,0,0,1-3.223,1.3H4.56Z" transform="translate(116.234)" fill="#fff"/>
    <path id="Path_141-2" data-name="Path 141" d="M4.56,362.068a4.643,4.643,0,0,1-3.223-1.3A4.361,4.361,0,0,1,0,357.647V4.421A4.358,4.358,0,0,1,1.337,1.3,4.64,4.64,0,0,1,4.56,0H396.883a4.642,4.642,0,0,1,3.223,1.3,4.358,4.358,0,0,1,1.337,3.124V357.647a4.361,4.361,0,0,1-1.337,3.125,4.637,4.637,0,0,1-3.223,1.3H4.56Z" transform="translate(116.234)" fill="#fff"/>
    <path id="Path_142" data-name="Path 142" d="M.9.881a2.937,2.937,0,0,0,0,4.241A3.146,3.146,0,0,0,3.09,6h169.87a3.146,3.146,0,0,0,2.186-.881,2.937,2.937,0,0,0,0-4.241A3.146,3.146,0,0,0,172.961,0H3.09A3.146,3.146,0,0,0,.9.881Z" transform="translate(303.083 91.787)" fill="#e4e4e4"/>
    <path id="Path_143" data-name="Path 143" d="M.9.882a2.937,2.937,0,0,0,0,4.239A3.145,3.145,0,0,0,3.088,6H89.811a3.145,3.145,0,0,0,2.184-.882,2.937,2.937,0,0,0,0-4.239A3.145,3.145,0,0,0,89.811,0H3.088A3.145,3.145,0,0,0,.9.882Z" transform="translate(303.086 109.797)" fill="#e4e4e4"/>
    <path id="Path_142-2" data-name="Path 142" d="M.9.882a2.937,2.937,0,0,0,0,4.239A3.145,3.145,0,0,0,3.088,6H321.6a3.145,3.145,0,0,0,2.184-.882,2.937,2.937,0,0,0,0-4.239A3.145,3.145,0,0,0,321.6,0H3.088A3.145,3.145,0,0,0,.9.882Z" transform="translate(154.614 206.647)" fill="#e4e4e4"/>
    <path id="Path_143-2" data-name="Path 143" d="M.9.882a2.937,2.937,0,0,0,0,4.239A3.145,3.145,0,0,0,3.088,6h235.36a3.145,3.145,0,0,0,2.184-.882,2.937,2.937,0,0,0,0-4.239A3.145,3.145,0,0,0,238.448,0H3.088A3.145,3.145,0,0,0,.9.882Z" transform="translate(154.614 224.656)" fill="#e4e4e4"/>
    <path id="Path_142-3" data-name="Path 142" d="M.9.882a2.937,2.937,0,0,0,0,4.239A3.145,3.145,0,0,0,3.088,6H321.6a3.145,3.145,0,0,0,2.184-.882,2.937,2.937,0,0,0,0-4.239A3.145,3.145,0,0,0,321.6,0H3.088A3.145,3.145,0,0,0,.9.882Z" transform="translate(154.614 242.258)" fill="#e4e4e4"/>
    <path id="Path_143-3" data-name="Path 143" d="M.9.882a2.937,2.937,0,0,0,0,4.239A3.145,3.145,0,0,0,3.088,6h235.36a3.145,3.145,0,0,0,2.184-.882,2.937,2.937,0,0,0,0-4.239A3.145,3.145,0,0,0,238.448,0H3.088A3.145,3.145,0,0,0,.9.882Z" transform="translate(154.614 260.268)" fill="#e4e4e4"/>
    <path id="Path_142-4" data-name="Path 142" d="M.9.882a2.937,2.937,0,0,0,0,4.239A3.145,3.145,0,0,0,3.088,6H321.6a3.145,3.145,0,0,0,2.184-.882,2.937,2.937,0,0,0,0-4.239A3.145,3.145,0,0,0,321.6,0H3.088A3.145,3.145,0,0,0,.9.882Z" transform="translate(154.614 278.339)" fill="#e4e4e4"/>
    <path id="Path_143-4" data-name="Path 143" d="M.9.882a2.937,2.937,0,0,0,0,4.239A3.145,3.145,0,0,0,3.088,6h235.36a3.145,3.145,0,0,0,2.184-.882,2.937,2.937,0,0,0,0-4.239A3.145,3.145,0,0,0,238.448,0H3.088A3.145,3.145,0,0,0,.9.882Z" transform="translate(154.614 296.349)" fill="#e4e4e4"/>
    <path id="Vector-4" data-name="Vector" d="M19.767,78.975A43.439,43.439,0,0,1,3.386,59.623,41.9,41.9,0,0,1,.855,34.709,42.73,42.73,0,0,1,13.027,12.63,44.927,44.927,0,0,1,35.8.829,45.779,45.779,0,0,1,61.5,3.282,44.21,44.21,0,0,1,81.459,19.164,42.088,42.088,0,0,1,75.913,73.6,45.247,45.247,0,0,1,44.478,86.242h0A45.479,45.479,0,0,1,19.767,78.975Z" transform="translate(163.672 60.672)" fill="#ff8e4b"/>
    <path id="Vector-5" data-name="Vector" d="M41.779,25.579a10.871,10.871,0,0,0-3.113-3.565,11.281,11.281,0,0,0-4.377-1.953,11.459,11.459,0,0,0-4.818.026L14.77,0,0,5.684,21.172,33.768A10.885,10.885,0,0,0,26,39.882a11.47,11.47,0,0,0,7.8,1.463,11.249,11.249,0,0,0,6.831-3.926,10.617,10.617,0,0,0,2.418-7.334h0A10.525,10.525,0,0,0,41.779,25.579Z" transform="translate(30.093 279.871)" fill="#a0616a"/>
    <path id="Vector-6" data-name="Vector" d="M0,67.489,16.668,16.7C17.889,3.934,26.131.368,26.481.222L27.016,0l14.5,37.5L30.871,65.032,57.01,107.653,44.485,123.439Z" transform="translate(0 185.03)" fill="#3f3d56"/>
    <path id="Vector-7" data-name="Vector" d="M24.216,1.665A10.959,10.959,0,0,0,20.791,4.95a10.576,10.576,0,0,0-1.67,4.381,10.464,10.464,0,0,0,.4,4.655L0,29.749,6.988,43.586,34.231,20.95a11.066,11.066,0,0,0,5.914-5.138,10.54,10.54,0,0,0,.9-7.649,10.848,10.848,0,0,0-4.566-6.3A11.454,11.454,0,0,0,28.753.093h0A11.344,11.344,0,0,0,24.216,1.665Z" transform="translate(170.219 135.901)" fill="#a0616a"/>
    <path id="Vector-8" data-name="Vector" d="M71.493,58.211,17.976,46.026C4.751,45.833.447,38.143.27,37.815l-.27-.5L37.442,20.4l29.137,8.165L108.388,0l17.2,10.887Z" transform="translate(74.066 152.919)" fill="#3f3d56"/>
    <path id="Vector-9" data-name="Vector" d="M14.538,54.353,21.452,0H0L0,54.354Z" transform="translate(105.948 445.881)" fill="#a0616a"/>
    <path id="Vector-10" data-name="Vector" d="M14.537,54.353,21.452,0H0L0,54.354Z" transform="translate(47.855 445.881)" fill="#a0616a"/>
    <path id="Vector-11" data-name="Vector" d="M1.185,80.459,2.372,186.206l26.082-2.3L41.5,37.931l16.6,145.976H85.021L87.733,36.782,78.249,4.6,0,0Z" transform="translate(42.688 301.838)" fill="#3f3d56"/>
    <path id="Vector-12" data-name="Vector" d="M19.383,147.039l-.293-.142L16.708,91.485c-.691-1.958-14.29-40.6-16.593-52.877C-2.218,26.166,31.6,15.246,35.709,13.969l.932-10.009L74.541,0l4.8,12.807,13.6,4.943a6.664,6.664,0,0,1,3.585,3.062,6.343,6.343,0,0,1,.583,4.6L89.553,55.2l18.457,98.573-3.974.167c-9.524,4.17-19.8,5.715-29.8,5.716C45.858,159.662,19.735,147.209,19.383,147.039Z" transform="translate(19.5 152.983)" fill="#7547c4"/>
    <path id="Vector-13" data-name="Vector" d="M27.1,53.3A26.877,26.877,0,0,1,0,26.65,26.877,26.877,0,0,1,27.1,0,26.877,26.877,0,0,1,54.2,26.65,26.877,26.877,0,0,1,27.1,53.3Z" transform="matrix(0.884, -0.468, 0.468, 0.884, 40.151, 109.331)" fill="#a0616a"/>
    <path id="Vector-14" data-name="Vector" d="M28.853,55.519a8.594,8.594,0,0,0-.011-1.712c-.35-3.25-2.287-6.2-1.823-9.632a4.963,4.963,0,0,1,.953-2.365c4.144-5.38,13.872,2.406,17.783-2.464,2.4-2.986-.421-7.688,1.419-11.026C49.6,23.914,56.8,26.088,61.31,23.675c5.02-2.684,4.72-10.151,1.415-14.693C58.695,3.443,51.629.488,44.652.062s-13.907,1.4-20.421,3.864c-7.4,2.8-14.741,6.661-19.3,12.971C-.6,24.569-1.137,34.885,1.634,43.857,3.319,49.315,9.07,55.982,13.317,60.368,18.517,65.739,28.175,62.856,28.853,55.519Z" transform="translate(41.157 85.431)" fill="#2f2e41"/>
    <path id="Vector-15" data-name="Vector" d="M15.679,31.271,1.013,18.065a3.014,3.014,0,0,1-.163-4.351,3.248,3.248,0,0,1,4.487-.163L17.759,24.738,42.337.91A3.185,3.185,0,0,1,43.367.238a3.269,3.269,0,0,1,2.437,0A3.186,3.186,0,0,1,46.838.9a3.075,3.075,0,0,1,.69,1,2.993,2.993,0,0,1,0,2.363,3.076,3.076,0,0,1-.694,1L20.087,31.193a3.179,3.179,0,0,1-1.031.668,3.257,3.257,0,0,1-1.216.234h0A3.221,3.221,0,0,1,15.679,31.271Z" transform="translate(187.742 87.985)" fill="#fff"/>
  </g>
</svg>
