<svg id="Group_10" data-name="Group 10" xmlns="http://www.w3.org/2000/svg" xmlns:xlink="http://www.w3.org/1999/xlink" width="60" height="68" viewBox="0 0 60 68">
  <defs>
    <clipPath id="clip-path">
      <path id="Vector_1" data-name="Vector 1" d="M57.741,50.119,60,19.332,44.184,9.785,29.372,0,2.259,7.16,0,26.492V50.119L13.556,63.962C25.356,69.053,50.711,73.413,57.741,50.119Z" fill="#c4c4c4"/>
    </clipPath>
  </defs>
  <path id="Vector_1-2" data-name="Vector 1" d="M57.741,50.119,60,19.332,44.184,9.785,29.372,0,2.259,7.16,0,26.492V50.119L13.556,63.962C25.356,69.053,50.711,73.413,57.741,50.119Z" fill="#c4c4c4"/>
  <g id="Group_10-2" data-name="Group 10" clip-path="url(#clip-path)">
    <ellipse id="Ellipse_11" data-name="Ellipse 11" cx="26.218" cy="25.439" rx="26.218" ry="25.439" transform="translate(5.042 19.079)" fill="#ff8e4b"/>
    <g id="character_chilling" data-name="character/chilling" transform="translate(-6.555 -17.122)">
      <path id="Background" d="M260.168,0V-189.324H0V0Z" transform="translate(260.168) rotate(180)" fill="none"/>
      <path id="Accent" d="M119.593,78.121c-1.942-.143-4.092.147-5.687-.992l-10.515-7.508A12.68,12.68,0,0,0,101,67.954c-1.46-.563-3.478-.551-5.022-.8L89.51,66.135c-.171-.028-1.013-.045-1.129-.19-.167-.208.15-1.383.178-1.637q.355-3.279.711-6.558c.022-.208.274-1.175.142-1.345-.113-.144-1.118-.133-1.3-.154l-6.705-.8-3.1-.369c-.212-.025-1.364-.324-1.56-.185-.312.221-.3,2.056-.348,2.425l-.84,6.225L73.967,75.324c-.144,1.071-.674.641-1.777.558l-6.837-.51a5.054,5.054,0,0,1-2.309-.5l-4.966-2.6c-3.424-1.793-6.837-3.968-10.415-5.453-2.4-1-5.3-1.329-7.832-1.935L27.47,61.921a60.245,60.245,0,0,0-8.3-.933l-3.508-.334a7.991,7.991,0,0,1-2.116-.2c-.5-.226-.6-.831-.973-1.343a12.583,12.583,0,0,0-5.485-3.828c-1.659-.683-3.413-.979-5.1-1.564A3.044,3.044,0,0,1,.425,52.679c-1.719-2.485,2.24-6.422,3.75-8.042a79.011,79.011,0,0,1,8.877-7.977c.584-.462,1.172-.919,1.768-1.364A80.551,80.551,0,0,1,38.5,8.148C46.086,2.8,55.143-.635,64.636.1a44.5,44.5,0,0,1,24.8,9.548c10.562,8.62,16.258,21.746,18.695,34.667.338,1.792.615,3.6.81,5.407.04.371-.072,1.621.176,1.913.2.232,1.186.341,1.47.422l3.68,1.057L125.016,56.2,135.9,59.326l3.709,1.066c.369.106,1.556.232,1.822.523.2.22.077,1.088.086,1.385l.13,4.69q.147,5.378.3,10.757.028,1.015.056,2.03Z" transform="translate(62.927 79.978)" fill="#ff788f"/>
      <path id="Ink" d="M94.529,146.373c-2.87-.067-5.995-1.559-8.656-2.48-6.141-2.127-12.047-4.647-18.457-5.924-3.155-.629-6.423-.678-9.554-1.327-1.066-.221-2.207-.811-3.235-.2-.617.365-.791.729-1.584.849a8.162,8.162,0,0,1-1.457.04c-.28-.009-.559-.017-.829-.01-6.949.181-14.008.533-20.952.114-3.548-.214-7.02.016-10.562-.473-1.814-.25-3.543-.747-5.331-1.107a8.43,8.43,0,0,0-2.346-.194,5.227,5.227,0,0,1-1.016.13c-.1-.013-.625-.2-.618-.2-.91.068-1.721.916-2.136-.311-.7,1.2-2.289.078-3.173-.235-1.306-.463-2.266-.625-2.9-1.972a18.694,18.694,0,0,1-1.032-3.85,8.636,8.636,0,0,1-.311-2.035,4.939,4.939,0,0,1,.559-1.7c-1.2.539-.454-2.268-.5-2.739-.184-1.857-.7-3.567-.283-5.436.468-2.107.1-4.445.315-6.623.25-2.492.75-4.953.982-7.445a57.469,57.469,0,0,1,1.48-6.379c.223-1.051.4-2.112.625-3.162.206-.983.864-1.639.886-2.651a2.436,2.436,0,0,1,.179-1.359A11.882,11.882,0,0,0,5.317,88.6a19.866,19.866,0,0,0,.9-3.4c.431-2.037.815-4.114,1.3-6.136a54.134,54.134,0,0,1,2.671-6.975c.661-1.678,1.113-3.419,1.772-5.1.359-.916,1.173-3.332,2.544-3.2-.442-.784-.1-1.18.368-2.005l.27.629c.17-.923.77-1.266,1.394-1.9a11.438,11.438,0,0,1,1.1-1.132c.316-.245.683-.362.885-.719A5.415,5.415,0,0,0,18.7,56.6a10.981,10.981,0,0,0-.1-2.843c-.141-.694-.4-1.6-1.133-1.9-.8-.335-1.856-.062-2.727-.389a5.228,5.228,0,0,1-3.447-4.928c.085-2.128,2.317-3.635,1.786-5.705-.643-2.512-1.877-4.919-2.729-7.374C8.615,28.47,7.076,23.323,5.818,18.2a13.211,13.211,0,0,1-.068-7.165A13.077,13.077,0,0,1,9.288,5.862C12.345,2.909,16.286.118,20.755,0l.165,0h.163c5.289.056,7.693,4.836,10.1,8.745a80.131,80.131,0,0,1,7,14.444,44.5,44.5,0,0,1,1.934,8.354c.211,1.3.377,4.876,1.867,5.353a1.8,1.8,0,0,0,.593.037,2.068,2.068,0,0,1,.625.038,2.874,2.874,0,0,1,1.345.851A4.816,4.816,0,0,1,45.676,41a3.067,3.067,0,0,1-1.058,2.734c-.234.15-1.846.958-1.895.713a7.115,7.115,0,0,1-.264,1.326c-.125.783-.129,1.572-.275,2.355a19.136,19.136,0,0,1-1.218,4.389c-.986,2.15-3.1,2.854-5.266,3.5.388.625.633,1.723,1.283,2.146.453.294.838.108,1.345.04a11.332,11.332,0,0,1,2.061-.047,30.2,30.2,0,0,0,8.718-.974c5.864-1.434,11.647-2.757,17.391-4.634,11.23-3.669,22.665-7,33.316-12.108a46.315,46.315,0,0,1,7.63-3.259c2.415-.673,4.569-1.8,6.963-2.488,2.258-.645,4.207-2.7,5.983-4.157,2.091-1.708,3.648-3.974,5.629-5.8,2.043-1.887,4.256-3.624,6.331-5.492a60.252,60.252,0,0,1,7.162-5.409c4.716-3.109,9.654-5.165,15.4-5.271a31.517,31.517,0,0,1,9.4.752c2.535.719,5.757,1.711,7.6,3.648,1.724,1.812,1.993,4.172-.189,5.708-2.282,1.607-5.155,2.22-7.75,3.18,2.115,1.159,4.4,2.268,6.01,4.089,1.216,1.379,2.309,3.9.859,5.493-2.175,2.387-7.258,1.073-10.014.653,1.413,1.595,3.023,3.875,2.252,6.082-.586,1.678-2.448,2.183-4.106,2.246-4.567.176-8.818-2.483-12.689-4.46-.751-.383-2.086-1.251-2.977-1.188-.558.04-.429.225-.614.767a7.832,7.832,0,0,1-.637,1.4,12.267,12.267,0,0,1-3.838,3.824,41.778,41.778,0,0,1-4.981,2.768c-1.086.538-4.037,1.494-4.311,2.8-.164.779.905,2.138,1.183,2.856a10.741,10.741,0,0,1,.576,3.887c.024,1.218.267,2.578-.305,3.718a7.182,7.182,0,0,1-2.443,2.222c4.038,2.31,8.344,4.18,12.212,6.767a52.2,52.2,0,0,1,10.21,8.848,34.468,34.468,0,0,1,6.276,11.723c1.521,4.391,3.193,8.888,3.9,13.485a43.428,43.428,0,0,1,.6,6.6c0,1.324-.258,2.819,1.273,3.3a33.118,33.118,0,0,0,4.538.613c2.534.425,5.036.992,7.542,1.544,2.551.561,5.1,1.117,7.639,1.735,2.254.548,4.6.926,6.785,1.695a18.685,18.685,0,0,1,4.93,2.2A2.8,2.8,0,0,1,195,119.773c0,.42-.129.8-.092,1.226a6.5,6.5,0,0,1,.14,1.031c-.04.711-.556,1.6-.106,2.285.409.622,1.364.642,2.042.71,1.8.182,3.6.335,5.39.622,1.469.235,2.775.685,3.254-.95a36.859,36.859,0,0,1,1.662-4.818c1.817-4.075,5.058-7.344,8.221-10.49a42.23,42.23,0,0,1,5.334-4.5,22.941,22.941,0,0,1,5.881-2.956,8.762,8.762,0,0,0,2.549-1.354,5.327,5.327,0,0,1,2.278-1.458c1.575-.264,2.967,1.012,3.812,2.141a7.557,7.557,0,0,1,1.628,4.5c-.059,1.84-1.455,3.264-2.675,4.543a45.717,45.717,0,0,0-8.154,11.025c-.994,1.99-1.955,3.97-3.1,5.886a21.509,21.509,0,0,0-2.29,6.236c-.433,1.8-.615,3.675-1.069,5.464-.5,1.961-1.74,1.959-3.442,1.957h-.412c-4.535.027-9.306.437-13.652-1.113a19.6,19.6,0,0,1-2.35-1.455,5.844,5.844,0,0,0-2.669-.316,11.276,11.276,0,0,1-1.13-.076,10.634,10.634,0,0,0-1.18-.074c-1.033.012-1.088.322-1.516,1.017a2.527,2.527,0,0,1-1.35,1.176c-.753.25-1-.238-1.724-.441a3.863,3.863,0,0,0-1.58,0,5.089,5.089,0,0,1-1.236.064,15.2,15.2,0,0,0-2.267-.44c-.475.018-2.291.945-1.771-.171a3.733,3.733,0,0,1-2.418.382,9.421,9.421,0,0,0-1.037-.03c.254-.646-.406-.306-.851-.517-.4-.189-.238-.565-.871-.428-.106.023-.09.3-.156.324a2.486,2.486,0,0,1-.852.215,7.567,7.567,0,0,1-1.971-.258,8.137,8.137,0,0,0-1.84-.262,3.778,3.778,0,0,1-1.393-.113c-.094-.034-.723-.386-.558-.37a3.009,3.009,0,0,0-.772.041,1.268,1.268,0,0,1-1.4-.4c-.691.969-2.807.276-3.79.226-2.5-.13-5.06.159-7.569.166-4.944.012-9.886-.273-14.827-.4-4.908-.125-9.707-.444-14.576-1.026a51.188,51.188,0,0,0-6.489.035,8.8,8.8,0,0,1-1.264-.118,6.63,6.63,0,0,0-1.647-.094,11.918,11.918,0,0,0-2.5,1.039c-4.417,1.562-9.353-.36-13.7-1.236.146,1.922,3.244,4.642.808,6.278-2.043,1.373-5.2-.993-7.209-1.51.632,2.115,1.444,5.392-1.908,5.391Z" transform="translate(11.486 21.447)" fill="#7547c4"/>
    </g>
  </g>
</svg>
