<svg id="sound_cloud" xmlns="http://www.w3.org/2000/svg" xmlns:xlink="http://www.w3.org/1999/xlink" width="118" height="118" viewBox="0 0 118 118">
  <defs>
    <clipPath id="clip-path">
      <rect id="sound_cloud_Background_Mask_" data-name="sound_cloud (Background/Mask)" width="118" height="118" fill="none"/>
    </clipPath>
  </defs>
  <rect id="sound_cloud_Background_Mask_2" data-name="sound_cloud (Background/Mask)" width="118" height="118" fill="none"/>
  <g id="sound_cloud-2" data-name="sound_cloud" clip-path="url(#clip-path)">
    <circle id="bg" cx="51.625" cy="51.625" r="51.625" transform="translate(7.375 7.375)" fill="#ff5502"/>
    <path id="sound_cloud-3" data-name="sound_cloud" d="M35.932,40.562V4.1A15.33,15.33,0,0,1,46.308,0c8.757,0,15.875,7.546,16.034,16.918a10.591,10.591,0,0,1,3.775-.693c6.251,0,11.32,5.448,11.32,12.169s-5.069,12.168-11.32,12.168Zm-6.431,0V7.375h3.687V40.562Zm-7.375,0v-29.5h3.688v29.5Zm-7.375,0V18.437h3.687V40.562Zm-7.375,0V14.75h3.688V40.562ZM0,40.562V22.125H3.687V40.562Z" transform="translate(22.125 36.875)" fill="#fff"/>
  </g>
</svg>
