<svg id="web" xmlns="http://www.w3.org/2000/svg" width="59" height="44" viewBox="0 0 59 44">
  <path id="Vector" d="M2.682,24.444a2.821,2.821,0,0,1-1.9-.715A2.339,2.339,0,0,1,0,22V2.444A2.339,2.339,0,0,1,.786.716,2.818,2.818,0,0,1,2.682,0H13.409a2.818,2.818,0,0,1,1.9.716,2.339,2.339,0,0,1,.786,1.728V22a2.339,2.339,0,0,1-.786,1.729,2.821,2.821,0,0,1-1.9.715Z" transform="translate(32.182 9.778)" fill="#ff8e4b"/>
  <path id="Vector-2" data-name="Vector" d="M.785.716A2.34,2.34,0,0,0,0,2.444,2.34,2.34,0,0,0,.785,4.173a2.82,2.82,0,0,0,1.9.716H13.409a2.82,2.82,0,0,0,1.9-.716,2.34,2.34,0,0,0,.785-1.728A2.34,2.34,0,0,0,15.305.716,2.82,2.82,0,0,0,13.409,0H2.682A2.82,2.82,0,0,0,.785.716Z" transform="translate(10.727 9.778)" fill="#ff8e4b"/>
  <path id="Vector-3" data-name="Vector" d="M.785.716A2.34,2.34,0,0,0,0,2.444,2.34,2.34,0,0,0,.785,4.173a2.82,2.82,0,0,0,1.9.716H13.409a2.82,2.82,0,0,0,1.9-.716,2.34,2.34,0,0,0,.785-1.728A2.34,2.34,0,0,0,15.305.716,2.82,2.82,0,0,0,13.409,0H2.682A2.82,2.82,0,0,0,.785.716Z" transform="translate(10.727 19.556)" fill="#ff8e4b"/>
  <path id="Vector-4" data-name="Vector" d="M.785.716A2.82,2.82,0,0,1,2.682,0H13.409a2.82,2.82,0,0,1,1.9.716,2.34,2.34,0,0,1,.785,1.728,2.34,2.34,0,0,1-.785,1.728,2.82,2.82,0,0,1-1.9.716H2.682a2.82,2.82,0,0,1-1.9-.716A2.34,2.34,0,0,1,0,2.444,2.34,2.34,0,0,1,.785.716Z" transform="translate(10.727 29.333)" fill="#ff8e4b"/>
  <path id="Vector-5" data-name="Vector" d="M8.045,44a8.462,8.462,0,0,1-5.689-2.148A7.02,7.02,0,0,1,0,36.667V7.333A7.02,7.02,0,0,1,2.356,2.148,8.457,8.457,0,0,1,8.045,0H50.954a8.454,8.454,0,0,1,5.689,2.148A7.018,7.018,0,0,1,59,7.333V36.667a7.018,7.018,0,0,1-2.357,5.185A8.458,8.458,0,0,1,50.954,44Z" fill="#ff8e4b"/>
</svg>
