<svg xmlns="http://www.w3.org/2000/svg" width="25.083" height="25.083" viewBox="0 0 25.083 25.083">
  <g id="Group_56" data-name="Group 56" transform="translate(0.875 0.875)">
    <path id="Vector" d="M17.5,0a5.833,5.833,0,0,1,5.833,5.833V17.5A5.833,5.833,0,0,1,17.5,23.333H5.833A5.833,5.833,0,0,1,0,17.5V5.833A5.833,5.833,0,0,1,5.833,0Z" fill="none" stroke="#7547c4" stroke-linecap="round" stroke-linejoin="round" stroke-width="1.75" stroke-dasharray="0 0"/>
    <path id="Vector-2" data-name="Vector" d="M8.809,6.816a4.667,4.667,0,1,1,.474-2.834A4.667,4.667,0,0,1,8.809,6.816Z" transform="translate(7.051 6.949)" fill="none" stroke="#7547c4" stroke-linecap="round" stroke-linejoin="round" stroke-width="1.75" stroke-dasharray="0 0"/>
    <path id="Vector-3" data-name="Vector" d="M0,0H.012" transform="translate(18.083 5.25)" fill="none" stroke="#7547c4" stroke-linecap="round" stroke-linejoin="round" stroke-width="1.75" stroke-dasharray="0 0"/>
  </g>
</svg>
