<svg xmlns="http://www.w3.org/2000/svg" width="551" height="436" viewBox="0 0 551 436">
  <g id="Group_5" data-name="Group 5" transform="translate(-649)">
    <path id="Rectangle_25" data-name="Rectangle 25" d="M177.851,0V200.882H0V0Z" transform="translate(649)" fill="#e5e5e5"/>
    <g id="Group_4" data-name="Group 4">
      <path id="Rectangle_25-2" data-name="Rectangle 25-2" d="M171.2,0V192.383H0V0Z" transform="translate(652.171 4.25)" fill="#fff"/>
      <path id="Rectangle_31" data-name="Rectangle 31" d="M55.118,0V5.628H0V0Z" transform="translate(681.186 72.35)" fill="#e5e5e5"/>
      <path id="Rectangle_32" data-name="Rectangle 32" d="M83.188,0V5.628H0V0Z" transform="translate(681.186 89.215)" fill="#ff8e4b"/>
      <path id="Rectangle_38" data-name="Rectangle 38" d="M75.023,0V5.628H0V0Z" transform="translate(681.186 106.188)" fill="#e5e5e5"/>
      <path id="Rectangle_39" data-name="Rectangle 39" d="M115.851,0V5.628H0V0Z" transform="translate(681.186 122.711)" fill="#ff8e4b"/>
      <path id="Rectangle_40" data-name="Rectangle 40" d="M94.416,0V5.628H0V0Z" transform="translate(682.39 138.448)" fill="#e5e5e5"/>
      <g id="Group_51" data-name="Group 51" transform="translate(717.363 15.646)">
        <path id="Path_341" data-name="Path 341" d="M16.425,40.349A20.372,20.372,0,1,1,40.814,20.371h0A20.409,20.409,0,0,1,16.425,40.349ZM20.407,0h0Z" fill="#ff8e4b"/>
      </g>
      <path id="Path_842" data-name="Path 842" d="M48.487,7.05C55.9,11,61.8,17.989,63.669,26.249c2.172,9.6-2.4,18.745-7.128,26.806-2.564,4.376-5.373,8.662-7.495,13.277-2.2,4.779-3.767,10.3-2.113,15.5,1.489,4.684,5.223,8.091,9.312,10.595a69.445,69.445,0,0,0,14.308,6.379,84.362,84.362,0,0,0,31.944,4.125,87.5,87.5,0,0,0,15.921-2.569c5.549-1.412,10.994-3.2,16.552-4.583,9.279-2.3,19.86-3.445,28.659,1.177,8.548,4.491,12.374,13.885,13.557,23.023,2.185,16.874-4.517,34.385-16.619,46.2-5.806,5.669-13.112,10.353-21.07,12.269-6.943,1.672-15.859,1.565-21.385-3.616-6.166-5.783-4.715-15.055.182-21.156,6.251-7.784,16.841-9.654,26.291-9.844,10.75-.216,21.49,1.382,32.233.389a49.584,49.584,0,0,0,15.243-3.67,38.631,38.631,0,0,0,11.488-7.76,50.351,50.351,0,0,0,13.33-23.911c2.678-10.714,2.095-21.975.016-32.737a147.408,147.408,0,0,0-4.274-16.417c-.718-2.273-4.313-1.3-3.59.988,6.4,20.267,9.973,43.7-2.4,62.519a37.29,37.29,0,0,1-22.3,16.024c-10.707,2.656-21.942,1.343-32.827.948-10.35-.376-21.716.03-30.588,6.047-7.278,4.935-12.369,14.323-10.169,23.186,2.121,8.547,10.35,12.882,18.579,13.55,8.635.7,17.132-2.191,24.383-6.714,15.085-9.409,25.115-25.958,27.214-43.5,1.094-9.142-.019-18.989-4.172-27.287a26.73,26.73,0,0,0-9.832-10.938,32.38,32.38,0,0,0-14.007-4.309c-11.136-1.024-21.835,2.793-32.4,5.712A89.984,89.984,0,0,1,103.992,99.1a82.656,82.656,0,0,1-16.3-.265,80.387,80.387,0,0,1-15.795-3.5,63.274,63.274,0,0,1-14.337-6.47c-3.962-2.529-7.388-6.151-7.582-11.086-.212-5.352,2.492-10.358,5.063-14.869C60.119,54,66.394,45.282,67.719,34.848c1.16-9.127-2.519-18.123-8.872-24.633A33.392,33.392,0,0,0,34.192.006,40.014,40.014,0,0,0,8.806,10.651,41.728,41.728,0,0,0,.244,21.508c-1.148,2.1,2.065,3.977,3.215,1.875l.007.006C11.873,8.01,32.013-1.729,48.487,7.05Z" transform="translate(702.542 160.496)" fill="#989090"/>
      <g id="Group_52" data-name="Group 52" transform="translate(817 35.935)">
        <path id="Vector" d="M2.02,30.207a10.068,10.068,0,0,1,11.8-3.3L37.28,0l4.983,17.857L19.221,40.671a10.109,10.109,0,0,1-18.995-6.5h0A10.029,10.029,0,0,1,2.02,30.207Z" transform="translate(81.58 153.633)" fill="#ffe2d5"/>
        <path id="Vector-2" data-name="Vector" d="M24.561,49.034A24.517,24.517,0,1,1,49.122,24.517,24.539,24.539,0,0,1,24.561,49.034Z" transform="translate(185.999 12.502)" fill="#ffe2d5"/>
        <path id="Vector-3" data-name="Vector" d="M5.833,47.2,0,0H18.1l0,47.2Z" transform="translate(163.614 327.28)" fill="#ffe2d5"/>
        <path id="Vector-4" data-name="Vector" d="M0,15.858v-.5A15.38,15.38,0,0,1,15.386,0H39.531V15.859Z" transform="translate(145.302 370.487)" fill="#2f2e41"/>
        <path id="Vector-5" data-name="Vector" d="M1.7,47.2,0,1.127,13.96,0l0,47.2Z" transform="translate(204.749 340.257)" fill="#ffe2d5"/>
        <path id="Vector-6" data-name="Vector" d="M0,15.858v-.5A15.38,15.38,0,0,1,15.386,0H39.531V15.859Z" transform="translate(182.302 383.464)" fill="#2f2e41"/>
        <path id="Vector-7" data-name="Vector" d="M48.926,182.4a4.507,4.507,0,0,1-3.974-4.4L43.163,53.893a1.5,1.5,0,0,0-2.914-.478L27,90.748l.947,69.976a4.494,4.494,0,0,1-4.229,4.545l-12.464.528a4.525,4.525,0,0,1-4.744-3.918L0,82.72l0-.05L9.877,0,84.06,5.358,63.468,179.593A4.5,4.5,0,0,1,59,183.558a4.409,4.409,0,0,1-.529-.031Z" transform="translate(156.747 195.319)" fill="#2f2e41"/>
        <path id="Vector-8" data-name="Vector" d="M.712,133.68A4.46,4.46,0,0,1,0,131.572s6.671-41.41,9.115-42.187L3.767,45.1a40.784,40.784,0,0,1,8.781-30.435A39.033,39.033,0,0,1,39.579.21Q40.7.109,41.81.056A39.4,39.4,0,0,1,74.944,15.111a39.992,39.992,0,0,1,7.219,36.341l-3,10.421V134.7a4.544,4.544,0,0,1-1.862,3.647c-9.341,6.843-19.9,9.263-30.156,9.263-19.411,0-37.757-8.664-44.791-12.423A4.47,4.47,0,0,1,.712,133.68Z" transform="translate(164.586 67.464)" fill="#7547c4"/>
        <path id="Vector-9" data-name="Vector" d="M1.805,93.72a4.486,4.486,0,0,1-.6-6.66L78.072,4.734A15.073,15.073,0,0,1,97.593,2.662h0A14.935,14.935,0,0,1,99.518,25.6L20.555,102.96a4.478,4.478,0,0,1-5.362.707,4.622,4.622,0,0,1-.484-.316h0Z" transform="translate(94.644 85.971)" fill="#7547c4"/>
        <path id="Vector-10" data-name="Vector" d="M3.3,23.092a10.07,10.07,0,0,1,12.211-1.038L43.6,0l1.55,18.472L18.241,36.583A10.105,10.105,0,0,1,.8,26.653h0A10.037,10.037,0,0,1,3.3,23.092Z" transform="translate(207.301 151.768)" fill="#ffe2d5"/>
        <path id="Vector-11" data-name="Vector" d="M14.667,107.157a4.454,4.454,0,0,1-1.079-2.023L10.751,93.24a4.425,4.425,0,0,1,1.65-4.6L31.49,68.028,3.411,24.81a15.231,15.231,0,1,1,25.833-15.6l26.1,50.719a23.052,23.052,0,0,1-7.721,29.741L20.95,107.455a4.466,4.466,0,0,1-2.97,1.135,4.557,4.557,0,0,1-1.369-.213h0A4.465,4.465,0,0,1,14.667,107.157Z" transform="translate(216.628 78.653)" fill="#7547c4"/>
        <path id="Vector-12" data-name="Vector" d="M46.172,59.548a4.4,4.4,0,0,1-4.591-3.171l-.015-.061c-.5-2.04-.105-4.175.024-6.271s-.089-4.4-1.527-5.93c-2.681-2.858-7.414-1.31-11.271-2.016A9.5,9.5,0,0,1,21.339,32c.053-.436.136-.872.23-1.309a7.32,7.32,0,0,0-7.651-8.814c-3.893.243-8.091,1.443-11.329-1.419A8.325,8.325,0,0,1,.537,11.483c1.812-5.311,7-8.114,12.135-9.667A44.655,44.655,0,0,1,50.5,7.8c3.263,2.27,6.314,5.127,7.719,8.84s.762,8.411-2.349,10.884a20.061,20.061,0,0,1,4.765,19.485c-1.516,4.971-8.855,9.769-12.559,11.922A4.4,4.4,0,0,1,46.172,59.548Z" transform="translate(180.685)" fill="#2f2e41"/>
        <path id="Vector-13" data-name="Vector" d="M382.706,1.7A1,1,0,0,1,382,2H1A1,1,0,1,1,1,0H382a1,1,0,0,1,1,1h0A1,1,0,0,1,382.706,1.7Z" transform="translate(0 398.068)" fill="#3f3d56"/>
      </g>
    </g>
  </g>
</svg>
