<svg xmlns="http://www.w3.org/2000/svg" width="141" height="93" viewBox="0 0 141 93">
  <g id="Group_3" data-name="Group 3" transform="translate(0.5 0.5)">
    <path id="Vector" d="M115.121,91.453a1.841,1.841,0,0,1-.551-1.3V1.842a1.841,1.841,0,0,1,.551-1.3A1.9,1.9,0,0,1,116.438,0h21.646a1.9,1.9,0,0,1,.728.129,1.88,1.88,0,0,1,.621.4,1.849,1.849,0,0,1,.418.6,1.828,1.828,0,0,1,.149.714V90.154A1.86,1.86,0,0,1,138.084,92H116.438A1.9,1.9,0,0,1,115.121,91.453Z" fill="#ff8e4b" stroke="rgba(0,0,0,0)" stroke-miterlimit="10" stroke-width="1"/>
    <path id="Vector-2" data-name="Vector" d="M78.408,90.154V35.935a12.389,12.389,0,0,0-.865-4.95,12.531,12.531,0,0,0-2.764-4.219,12.742,12.742,0,0,0-4.222-2.813,12.891,12.891,0,0,0-5-.955H25.089c-2.345,0-1.754,1.729-1.754,1.729V90.154C23.335,91.7,21.581,92,21.581,92H1.916a1.9,1.9,0,0,1-.728-.129,1.88,1.88,0,0,1-.621-.4,1.849,1.849,0,0,1-.418-.6A1.827,1.827,0,0,1,0,90.154V1.842A1.86,1.86,0,0,1,1.916,0H76.947A25.161,25.161,0,0,1,94.463,7.252a24.447,24.447,0,0,1,7.276,17.3l.044,65.608a1.814,1.814,0,0,1-.141.705,1.836,1.836,0,0,1-.4.6,1.866,1.866,0,0,1-.607.4,1.887,1.887,0,0,1-.716.139L80.141,92S78.408,91.478,78.408,90.154Z" fill="#ff8e4b" stroke="rgba(0,0,0,0)" stroke-miterlimit="10" stroke-width="1"/>
    <path id="Vector-3" data-name="Vector" d="M38.661,91.489a1.717,1.717,0,0,1-.514-1.223V38.518A1.756,1.756,0,0,1,39.9,36.789H61.889a1.74,1.74,0,0,1,1.684,1.729V90.266a1.691,1.691,0,0,1-.127.659,1.71,1.71,0,0,1-.374.561,1.738,1.738,0,0,1-.564.376,1.759,1.759,0,0,1-.667.133H39.9A1.767,1.767,0,0,1,38.661,91.489Z" fill="#ff8e4b" stroke="rgba(0,0,0,0)" stroke-miterlimit="10" stroke-width="1"/>
  </g>
</svg>
