<svg xmlns="http://www.w3.org/2000/svg" width="582" height="468" viewBox="0 0 582 468">
  <g id="Group_4" data-name="Group 4" transform="translate(0 0)">
    <path id="Vector" d="M511.4,0V286.7H0V0Z" transform="translate(0 36.125)" fill="#fff"/>
    <g id="Group_3" data-name="Group 3" transform="translate(1.107 12.178)">
      <path id="Vector-2" data-name="Vector" d="M510.521,0V23.022H0V0Z" fill="#7547c4"/>
      <path id="Vector-3" data-name="Vector" d="M4.115,8.646A4.223,4.223,0,0,1,0,4.323,4.223,4.223,0,0,1,4.115,0,4.223,4.223,0,0,1,8.23,4.323,4.223,4.223,0,0,1,4.115,8.646Z" transform="translate(19.479 7.674)" fill="#fff"/>
      <path id="Vector-4" data-name="Vector" d="M4.115,8.646A4.223,4.223,0,0,1,0,4.323,4.223,4.223,0,0,1,4.115,0,4.223,4.223,0,0,1,8.23,4.323,4.223,4.223,0,0,1,4.115,8.646Z" transform="translate(35.098 7.674)" fill="#fff"/>
      <path id="Vector-5" data-name="Vector" d="M4.115,8.646A4.223,4.223,0,0,1,0,4.323,4.223,4.223,0,0,1,4.115,0,4.223,4.223,0,0,1,8.23,4.323,4.223,4.223,0,0,1,4.115,8.646Z" transform="translate(50.717 7.674)" fill="#fff"/>
    </g>
    <path id="Vector-6" data-name="Vector" d="M131.4,0V227.2H0V0Z" transform="translate(46.467 65.872)" fill="#e5e5e5"/>
    <path id="Vector-7" data-name="Vector" d="M109.5,0V62.54H0V0Z" transform="translate(200.555 65.872)" fill="#7547c4"/>
    <path id="Vector-8" data-name="Vector" d="M109.5,0V67.29H0V0Z" transform="translate(200.555 145.828)" fill="#e5e5e5"/>
    <path id="Vector-9" data-name="Vector" d="M109.5,0V62.54H0V0Z" transform="translate(200.555 230.535)" fill="#7547c4"/>
    <path id="Vector-10" data-name="Vector" d="M131.4,0V99.014H0V0Z" transform="translate(333.525 65.872)" fill="#e5e5e5"/>
    <path id="Vector-11" data-name="Vector" d="M131.4,0V99.014H0V0Z" transform="translate(333.525 194.061)" fill="#e5e5e5"/>
    <path id="Vector-12" data-name="Vector" d="M0,28.564a28.74,28.74,0,0,1,8.266-20.2,27.984,27.984,0,0,1,39.912,0,28.74,28.74,0,0,1,8.266,20.2V49.88a3.865,3.865,0,0,1-1.112,2.712,3.772,3.772,0,0,1-2.679,1.125H3.791a3.772,3.772,0,0,1-2.679-1.125A3.865,3.865,0,0,1,0,49.88Z" transform="translate(414.308 122.119)" fill="#2f2e41"/>
    <path id="Vector-13" data-name="Vector" d="M15.363,41.647,0,4.115,14.691,0,25.317,38.859Z" transform="translate(458.943 410.547)" fill="#ffb8b8"/>
    <path id="Vector-14" data-name="Vector" d="M32.488,0V12.683H0A12.75,12.75,0,0,1,3.676,3.715,12.488,12.488,0,0,1,12.552,0H32.488Z" transform="translate(454.285 454.703) rotate(-15.648)" fill="#2f2e41"/>
    <path id="Vector-15" data-name="Vector" d="M4.914,40.32,0,0H15.244l0,40.32Z" transform="translate(365.241 416.835)" fill="#ffb8b8"/>
    <path id="Vector-16" data-name="Vector" d="M32.46,0V12.693H0A12.772,12.772,0,0,1,3.673,3.718,12.466,12.466,0,0,1,12.541,0H32.46Z" transform="translate(350.236 454.168)" fill="#2f2e41"/>
    <path id="Vector-17" data-name="Vector" d="M4.479,16.232a8.405,8.405,0,0,0,10.194-1.653l27.455,12.5-2.5-15.63L13.942,1.975a8.442,8.442,0,0,0-11.306.411A8.7,8.7,0,0,0,1.706,13.8h0A8.5,8.5,0,0,0,4.479,16.232Z" transform="translate(366.323 218.022)" fill="#ffb8b8"/>
    <path id="Vector-18" data-name="Vector" d="M18.02,105.93A32.428,32.428,0,0,1,7.647,97.637a32.885,32.885,0,0,1-6.231-11.8C-2.495,73.3,2.436,60.991,7.205,49.084c2.955-7.379,5.746-14.348,6.47-21.217l.253-2.439c1.128-10.955,2.1-20.415,7.5-23.964,2.8-1.839,6.554-1.944,11.491-.321L79.287,16.389l-1.705,89.094-.282.1c-.243.083-16.59,5.521-34.219,5.521C34.456,111.1,25.526,109.8,18.02,105.93Z" transform="translate(381.993 214.715)" fill="#2f2e41"/>
    <path id="Vector-19" data-name="Vector" d="M54.356.574s-10.109,56.275-6.74,75.033S-10.933,82.855,1.7,64.949L5.916,43.633s-8.424-8.527-.842-18.758L13.919,4.837S36.665-1.984,54.356.574Z" transform="translate(400.178 183.284)" fill="#7547c4"/>
    <path id="Vector-20" data-name="Vector" d="M0,133.78,9.787,57.547c.658-2.128,15.819-50.428,22.705-53.042A116.436,116.436,0,0,1,47.8.2l1-.2L43.173,8.534,20.794,62.809l7.24,76.291Z" transform="translate(374.876 185.025)" fill="#2f2e41"/>
    <path id="Vector-21" data-name="Vector" d="M0,198.89l20.327-84.007L50.573,0l.3,2.04c.024.152,2.849,15.16,44.777,8.5l.369-.058.1.363,50.675,181.22-41.272,6.962L67.879,66.81,36.221,205Z" transform="translate(352.082 242.813)" fill="#2f2e41"/>
    <path id="Vector-22" data-name="Vector" d="M.023,155.429c.025-.716,2.517-71.94,1.685-100.585C.872,26.1,10.066,1.212,10.159.963l.075-.2.2-.059c11.9-3.439,22.214,6.826,22.317,6.93l.145.147L29.512,36.069l14.5,102.865L0,156.074Z" transform="translate(438.506 182.317)" fill="#2f2e41"/>
    <path id="Vector-23" data-name="Vector" d="M20.691,41.884A20.818,20.818,0,0,1,0,20.942,20.818,20.818,0,0,1,20.691,0,20.818,20.818,0,0,1,41.383,20.942,20.818,20.818,0,0,1,20.691,41.884Z" transform="translate(416.039 133.456)" fill="#ffb8b8"/>
    <path id="Vector-24" data-name="Vector" d="M6.546,6.625A22.216,22.216,0,0,1,22.325,0h4.212A22.215,22.215,0,0,1,42.316,6.625,22.76,22.76,0,0,1,48.862,22.6v.426h-8.9l-3.036-8.6-.607,8.6h-4.6L30.184,18.68l-.306,4.342H0V22.6A22.76,22.76,0,0,1,6.546,6.625Z" transform="translate(407.631 129.793)" fill="#2f2e41"/>
    <path id="Vector-25" data-name="Vector" d="M.01,37.017a3.819,3.819,0,0,1,.423-2.05C4.9,26.374,11.147,10.5,2.852.7l-.6-.7H26.339V36.6L4.461,40.5a3.827,3.827,0,0,1-.671.06,3.739,3.739,0,0,1-1.718-.418A3.872,3.872,0,0,1,.01,37.017Z" transform="translate(433.964 139.252)" fill="#2f2e41"/>
    <path id="Vector-26" data-name="Vector" d="M333.075,316.316,193.55,197.159A112.971,112.971,0,0,1,20.9,181.63,116.288,116.288,0,0,1,16.135,56.02a114.269,114.269,0,0,1,47.713-44.35A112.66,112.66,0,0,1,187.1,27.139,116.106,116.106,0,0,1,207.07,180.944L346.595,300.1l.015.013a10.7,10.7,0,0,1,1.237,14.951,10.443,10.443,0,0,1-7.13,3.722q-.439.037-.876.037A10.405,10.405,0,0,1,333.075,316.316Z" transform="translate(150.629)" fill="#ff8e4b"/>
    <path id="Vector-27" data-name="Vector" d="M9.685,60.832A87.054,87.054,0,0,1,24.814,0Q22.37,2.491,20.088,5.218a87.109,87.109,0,0,0-10.567,95.24,86.083,86.083,0,0,0,20.741,26.3A84.93,84.93,0,0,0,59.37,143.03a84.3,84.3,0,0,0,64.992-5.573,85.4,85.4,0,0,0,25.989-20.993q2.276-2.73,4.287-5.593a84.48,84.48,0,0,1-115.363,5.079h0A86.553,86.553,0,0,1,9.685,60.832Z" transform="translate(169.372 63.816)" opacity="0.3"/>
    <path id="Vector-28" data-name="Vector" d="M10.219,26.421a8.422,8.422,0,0,0,3.359-1.5,8.544,8.544,0,0,0,2.417-2.8,8.652,8.652,0,0,0,1.02-3.569l29.008-8.149L34.231,0,8.492,9.334a8.46,8.46,0,0,0-5.65,2.193A8.7,8.7,0,0,0,1.542,22.9a8.515,8.515,0,0,0,5.006,3.44h0A8.373,8.373,0,0,0,10.219,26.421Z" transform="translate(436.826 242.089)" fill="#ffb8b8"/>
    <path id="Vector-29" data-name="Vector" d="M0,57.413,24.231,43.882,8.433,24.527,11.011,2.784,17.43,0l.2.26C20.656,4.2,47.2,38.868,47.2,43.154c0,4.4-5.079,17.329-12.027,20.845-6.7,3.392-31.87,9.984-32.938,10.263l-.473.123Z" transform="translate(453.665 189.731)" fill="#2f2e41"/>
    <path id="Vector-30" data-name="Vector" d="M.842,1.705a.837.837,0,0,1-.6-.25A.86.86,0,0,1,.247.25.837.837,0,0,1,.842,0H321.814a.837.837,0,0,1,.6.25.86.86,0,0,1,0,1.206.837.837,0,0,1-.6.25Z" transform="translate(259.344 466.295)" fill="#ccc"/>
  </g>
</svg>
