<svg xmlns="http://www.w3.org/2000/svg" width="30" height="30" viewBox="0 0 30 30">
  <g id="Group" transform="translate(0 0)">
    <path id="Vector" d="M10.353,29.262A15,15,0,1,1,19.659.742L18.144,2.259a13.125,13.125,0,1,0,9.6,9.6l1.516-1.517a15,15,0,0,1-18.91,18.916Zm3.284-4.983A9.375,9.375,0,1,1,16.875,5.818V7.742a7.5,7.5,0,1,0,5.388,5.388h1.924A9.375,9.375,0,0,1,13.637,24.278Zm1.125-6.472a2.812,2.812,0,1,1,1.451-5.34L18.75,9.93V4.693a.946.946,0,0,1,.071-.359.928.928,0,0,1,.2-.3l3.75-3.75a.938.938,0,0,1,1.6.663V5.63h4.687a.939.939,0,0,1,.664,1.6l-3.75,3.75a.939.939,0,0,1-.663.274H20.075l-2.537,2.536A2.812,2.812,0,0,1,15,17.817Q14.882,17.817,14.762,17.806Z" fill="#ff8e4b"/>
  </g>
</svg>
