<svg id="Group_3" data-name="Group 3" xmlns="http://www.w3.org/2000/svg" width="711.68" height="493" viewBox="0 0 711.68 493">
  <g id="Group_8" data-name="Group 8">
    <path id="Vector" d="M10.225-86.16l24.74,57.577L27.412-15.614,43.011,0,62.62-27.484,22.683-94.056a15.4,15.4,0,0,0,.832-8.03,14.306,14.306,0,0,0-3.3-7.148,11.438,11.438,0,0,0-6.263-3.732,10.5,10.5,0,0,0-7,1.006,12.574,12.574,0,0,0-5.264,5.388,15.175,15.175,0,0,0-1.657,7.86,14.779,14.779,0,0,0,2.537,7.546,11.947,11.947,0,0,0,5.832,4.557h0A10.6,10.6,0,0,0,10.225-86.16Z" transform="translate(170.741 127.547) rotate(180)" fill="#ffe2d5"/>
    <path id="Vector-2" data-name="Vector" d="M45.264-36.068,19.951-52.874a4.654,4.654,0,0,0-1.982-.749,4.471,4.471,0,0,0-2.078.226,4.945,4.945,0,0,0-1.823,1.164,5.813,5.813,0,0,0-1.261,1.905L.5-20.538a6.566,6.566,0,0,0-.318,4.022,5.827,5.827,0,0,0,2.054,3.282L17.923-1.008a4.6,4.6,0,0,0,3.341.981,4.847,4.847,0,0,0,3.119-1.685L46.315-26.92A6.277,6.277,0,0,0,47.8-30.953a6.319,6.319,0,0,0-1.386-4.078h0A5.274,5.274,0,0,0,45.264-36.068Z" transform="translate(166.526 100.47) rotate(180)" fill="#7547c4"/>
    <path id="Vector-3" data-name="Vector" d="M20.386-63.208,0-6.148,19.725,0,33.751-59.042Z" transform="translate(118.324 406.382) rotate(180)" fill="#ffe2d5"/>
    <path id="Vector-4" data-name="Vector" d="M43.995,0V-19.1H0a21.177,21.177,0,0,0,1.294,7.311A19.414,19.414,0,0,0,4.979-5.6a17.015,17.015,0,0,0,5.515,4.141A15.386,15.386,0,0,0,17,0h27Z" transform="matrix(-0.955, -0.298, 0.298, -0.955, 125.385, 473.422)" fill="#2f2e41"/>
    <path id="Vector-5" data-name="Vector" d="M6.59-61.189,0,0H20.441l0-61.189Z" transform="translate(219.263 415.915) rotate(180)" fill="#ffe2d5"/>
    <path id="Vector-6" data-name="Vector" d="M43.529,0V-19.263H0a21.717,21.717,0,0,0,1.28,7.372A19.656,19.656,0,0,0,4.926-5.642a16.866,16.866,0,0,0,5.456,4.176A14.986,14.986,0,0,0,16.818,0Z" transform="translate(239.386 472.572) rotate(180)" fill="#2f2e41"/>
    <path id="Vector-7" data-name="Vector" d="M27.747-63.562C12.423-63.562,0-49.333,0-31.781S12.423,0,27.747,0,55.495-14.229,55.495-31.781,43.072-63.562,27.747-63.562Z" transform="translate(211.979 17.603) rotate(180)" fill="#ffe2d5"/>
    <path id="Vector-8" data-name="Vector" d="M7.733-244.559a4.771,4.771,0,0,0-3.481,1.583,6.221,6.221,0,0,0-1.6,3.881C-2.986-136.4.313-62.742,13.036-7.277a6.69,6.69,0,0,0,.206.714l1.014,2.9A5.721,5.721,0,0,0,16.123-1a4.619,4.619,0,0,0,2.853,1H57.9a4.54,4.54,0,0,0,2.125-.532,5.208,5.208,0,0,0,1.735-1.5L67.044-9.1c.1-.138.2-.278.293-.426,23.839-38.076,45.2-112.515,69.945-212.57a6.563,6.563,0,0,0-.4-4.347,5.3,5.3,0,0,0-2.938-2.791L113.6-236.688a4.511,4.511,0,0,0-3.554.206,5.488,5.488,0,0,0-2.575,2.812L54.685-108.276a4.315,4.315,0,0,1-1.727,2.045,3.52,3.52,0,0,1-2.451.461,3.811,3.811,0,0,1-2.208-1.3,4.813,4.813,0,0,1-1.093-2.555L31.7-239.525a6.13,6.13,0,0,0-1.7-3.593,4.748,4.748,0,0,0-3.338-1.441H7.733Z" transform="translate(226.332 188.919) rotate(180)" fill="#2f2e41"/>
    <path id="Vector-9" data-name="Vector" d="M53.457-117.688,6.18-115.979A4.747,4.747,0,0,0,2.9-114.462a6.127,6.127,0,0,0-1.614,3.6C-4.7-55.3,11.733-40.412,19.078-36.592a4.066,4.066,0,0,1,1.544,1.433,4.868,4.868,0,0,1,.729,2.117l.635,5.824a6.29,6.29,0,0,0,1,2.828,56.862,56.862,0,0,0,35.59,24.3A4.447,4.447,0,0,0,60.623-.15a4.805,4.805,0,0,0,1.857-.975A5.616,5.616,0,0,0,63.85-2.86a6.4,6.4,0,0,0,.663-2.213l.952-8.363a4.979,4.979,0,0,1,.806-2.189c24.017-35.962-2.739-89.06-8.347-99.338a5.462,5.462,0,0,0-1.847-2,4.6,4.6,0,0,0-2.461-.728Z" transform="translate(215.038 80.843) rotate(180)" fill="#7547c4"/>
    <path id="Vector-10" data-name="Vector" d="M65.347-15.726c-7,6.265-14.8,11.617-23.4,14.177S23.854.576,16.008-4.2.05-18.466,0-28.642c-.015-3.269.71-7.693,3.522-7.127l.813-.124,20.343,4.706,8.664-34.44c.609-2.419,1.425-5.125,3.431-6.157,1.889-.972,4.072-.056,5.983.857.314.15,3.015,7.093,3.015,7.093a1.31,1.31,0,0,0,.339.557,1.071,1.071,0,0,0,.539.284,1,1,0,0,0,.59-.067,1.152,1.152,0,0,0,.479-.4l1.6-2.3a2.255,2.255,0,0,1,1.2-.891,1.993,1.993,0,0,1,1.43.119L85.131-50.665c1.528.731,3.236,1.685,3.679,3.513.425,1.751-.51,3.522-1.428,5A120.91,120.91,0,0,1,65.347-15.726Z" transform="translate(215.632 10.813) rotate(180)" fill="#2f2e41"/>
    <path id="Vector-11" data-name="Vector" d="M1.13-2.588a1.062,1.062,0,0,0-.8.379A1.4,1.4,0,0,0,0-1.294a1.4,1.4,0,0,0,.331.915A1.062,1.062,0,0,0,1.13,0H341.18a1.062,1.062,0,0,0,.8-.379,1.4,1.4,0,0,0,.331-.915,1.4,1.4,0,0,0-.331-.915,1.062,1.062,0,0,0-.8-.379Z" transform="translate(342.31 490.412) rotate(180)" fill="#3f3d56"/>
    <path id="Vector-12" data-name="Vector" d="M24.394-38.353l-5.143,4.279a2.287,2.287,0,0,1-1.47.549,2.287,2.287,0,0,1-1.47-.549L11.17-38.353a3.331,3.331,0,0,0-2.134-.794,3.331,3.331,0,0,0-2.134.794,4.177,4.177,0,0,0-1.319,2.079,4.735,4.735,0,0,0,0,2.57L7.547-26.78a3.252,3.252,0,0,1,0,1.771,2.868,2.868,0,0,1-.91,1.431L1.5-19.3A4.177,4.177,0,0,0,.178-17.219a4.735,4.735,0,0,0,0,2.57A4.177,4.177,0,0,0,1.5-12.571a3.331,3.331,0,0,0,2.134.794H9.987a2.288,2.288,0,0,1,1.471.546A2.871,2.871,0,0,1,12.365-9.8l1.964,6.924A4.177,4.177,0,0,0,15.648-.794,3.331,3.331,0,0,0,17.782,0a3.331,3.331,0,0,0,2.134-.794,4.177,4.177,0,0,0,1.319-2.079L23.2-9.8a2.871,2.871,0,0,1,.907-1.433,2.288,2.288,0,0,1,1.471-.546h6.356a3.331,3.331,0,0,0,2.134-.794,4.177,4.177,0,0,0,1.319-2.079,4.735,4.735,0,0,0,0-2.57A4.177,4.177,0,0,0,34.067-19.3l-5.143-4.279a2.869,2.869,0,0,1-.91-1.432,3.254,3.254,0,0,1,0-1.771L29.981-33.7a4.663,4.663,0,0,0,.012-2.574,4.105,4.105,0,0,0-1.331-2.074,3.325,3.325,0,0,0-2.134-.809h0A3.325,3.325,0,0,0,24.394-38.353Z" transform="translate(212.012 252.192) rotate(180)" fill="#ff8e4b"/>
    <path id="Vector-13" data-name="Vector" d="M22.823-138.258A15.377,15.377,0,0,1,24.4-132.51a15.778,15.778,0,0,1-.7,5.971,14.276,14.276,0,0,1-2.837,5.072L29.644,0,3.5-4.12,3-122.135a15.23,15.23,0,0,1-3-9.316A15.159,15.159,0,0,1,3.16-140.7a11.753,11.753,0,0,1,7.724-4.509,11.064,11.064,0,0,1,8.389,2.5h0A13.4,13.4,0,0,1,22.823-138.258Z" transform="translate(185.104 134.808) rotate(180)" fill="#ffe2d5"/>
    <path id="Vector-14" data-name="Vector" d="M31.719-51.6,3.649-42.149A4.917,4.917,0,0,0,1.81-41.018,5.779,5.779,0,0,0,.523-39.136,6.507,6.507,0,0,0,0-36.82a6.59,6.59,0,0,0,.338,2.359L10.731-3.724A5.618,5.618,0,0,0,13.059-.691a4.5,4.5,0,0,0,3.493.553L35.1-4.755a5.054,5.054,0,0,0,2.921-2.1,6.4,6.4,0,0,0,1.08-3.751L38.235-46.18A6.253,6.253,0,0,0,36.7-50.188a4.777,4.777,0,0,0-3.537-1.656h0A4.5,4.5,0,0,0,31.719-51.6Z" transform="translate(186.917 100.454) rotate(180)" fill="#7547c4"/>
    <path id="Vector-15" data-name="Vector" d="M7.169,182.449A6.519,6.519,0,0,1,2.1,179.793a10.4,10.4,0,0,1-2.1-6.4V9.058a10.4,10.4,0,0,1,2.1-6.4A6.519,6.519,0,0,1,7.169,0h435.3a6.519,6.519,0,0,1,5.067,2.656,10.4,10.4,0,0,1,2.1,6.4V173.391a10.4,10.4,0,0,1-2.1,6.4,6.519,6.519,0,0,1-5.067,2.656Z" transform="translate(262.045)" fill="#3f3d56"/>
    <path id="Vector-16" data-name="Vector" d="M29.884-46.984l-6.3,5.242a2.8,2.8,0,0,1-1.8.673,2.8,2.8,0,0,1-1.8-.673l-6.3-5.242a4.08,4.08,0,0,0-2.614-.973,4.08,4.08,0,0,0-2.614.973A5.116,5.116,0,0,0,6.84-44.437a5.8,5.8,0,0,0,0,3.148l2.406,8.482a3.986,3.986,0,0,1,0,2.169,3.515,3.515,0,0,1-1.115,1.754l-6.3,5.242A5.117,5.117,0,0,0,.218-21.095a5.8,5.8,0,0,0,0,3.148A5.117,5.117,0,0,0,1.833-15.4a4.08,4.08,0,0,0,2.614.973h7.787a2.8,2.8,0,0,1,1.8.668A3.516,3.516,0,0,1,15.148-12L17.554-3.52A5.117,5.117,0,0,0,19.169-.973,4.081,4.081,0,0,0,21.784,0,4.081,4.081,0,0,0,24.4-.973,5.117,5.117,0,0,0,26.013-3.52L28.42-12a3.517,3.517,0,0,1,1.112-1.756,2.8,2.8,0,0,1,1.8-.668H39.12a4.08,4.08,0,0,0,2.614-.973,5.117,5.117,0,0,0,1.615-2.547,5.8,5.8,0,0,0,0-3.148,5.117,5.117,0,0,0-1.616-2.547l-6.3-5.242a3.515,3.515,0,0,1-1.115-1.754,3.986,3.986,0,0,1,0-2.169l2.406-8.482a5.712,5.712,0,0,0,.015-3.154,5.029,5.029,0,0,0-1.631-2.541,4.074,4.074,0,0,0-2.614-.991A4.074,4.074,0,0,0,29.884-46.984Z" transform="translate(616.546 203.668) rotate(180)" fill="#ff8e4b"/>
    <path id="Vector-17" data-name="Vector" d="M29.884-46.984l-6.3,5.242a2.8,2.8,0,0,1-1.8.673,2.8,2.8,0,0,1-1.8-.673l-6.3-5.242a4.08,4.08,0,0,0-2.614-.973,4.08,4.08,0,0,0-2.614.973,5.116,5.116,0,0,0-1.616,2.547,5.8,5.8,0,0,0,0,3.148l2.406,8.482a3.986,3.986,0,0,1,0,2.169,3.515,3.515,0,0,1-1.114,1.754l-6.3,5.242A5.117,5.117,0,0,0,.218-21.094a5.8,5.8,0,0,0,0,3.148A5.117,5.117,0,0,0,1.833-15.4a4.08,4.08,0,0,0,2.614.973h7.787a2.8,2.8,0,0,1,1.8.668A3.516,3.516,0,0,1,15.147-12L17.554-3.52A5.117,5.117,0,0,0,19.169-.973,4.08,4.08,0,0,0,21.783,0,4.08,4.08,0,0,0,24.4-.973,5.117,5.117,0,0,0,26.013-3.52L28.419-12a3.517,3.517,0,0,1,1.112-1.756,2.8,2.8,0,0,1,1.8-.668H39.12a4.08,4.08,0,0,0,2.614-.973,5.117,5.117,0,0,0,1.616-2.547,5.8,5.8,0,0,0,0-3.148,5.117,5.117,0,0,0-1.615-2.547l-6.3-5.242a3.515,3.515,0,0,1-1.115-1.754,3.985,3.985,0,0,1,0-2.169l2.406-8.482a5.712,5.712,0,0,0,.015-3.154,5.029,5.029,0,0,0-1.631-2.541,4.074,4.074,0,0,0-2.614-.991h0A4.074,4.074,0,0,0,29.884-46.984Z" transform="translate(552.706 203.668) rotate(180)" fill="#ff8e4b"/>
    <path id="Vector-18" data-name="Vector" d="M29.884-46.984l-6.3,5.242a2.808,2.808,0,0,1-1.8.671,2.808,2.808,0,0,1-1.8-.671l-6.3-5.242a4.08,4.08,0,0,0-2.614-.973,4.08,4.08,0,0,0-2.614.973A5.116,5.116,0,0,0,6.84-44.437a5.8,5.8,0,0,0,0,3.148l2.406,8.482a3.986,3.986,0,0,1,0,2.169,3.515,3.515,0,0,1-1.115,1.754l-6.3,5.242A5.117,5.117,0,0,0,.218-21.094a5.8,5.8,0,0,0,0,3.148A5.117,5.117,0,0,0,1.833-15.4a4.08,4.08,0,0,0,2.614.973h7.787a2.8,2.8,0,0,1,1.8.668A3.516,3.516,0,0,1,15.147-12L17.554-3.52A5.117,5.117,0,0,0,19.169-.973,4.08,4.08,0,0,0,21.783,0,4.08,4.08,0,0,0,24.4-.973,5.117,5.117,0,0,0,26.013-3.52L28.42-12a3.517,3.517,0,0,1,1.112-1.756,2.8,2.8,0,0,1,1.8-.668H39.12a4.08,4.08,0,0,0,2.614-.973,5.117,5.117,0,0,0,1.616-2.547,5.8,5.8,0,0,0,0-3.148,5.117,5.117,0,0,0-1.615-2.547l-6.3-5.242a3.515,3.515,0,0,1-1.114-1.754,3.986,3.986,0,0,1,0-2.169l2.406-8.482a5.712,5.712,0,0,0,.015-3.153,5.03,5.03,0,0,0-1.631-2.541,4.075,4.075,0,0,0-2.614-.991h0A4.074,4.074,0,0,0,29.884-46.984Z" transform="translate(488.867 203.668) rotate(180)" fill="#ff8e4b"/>
    <path id="Vector-19" data-name="Vector" d="M30.065,47.891l-6.3-5.243a2.355,2.355,0,0,0-3.086,0l-6.3,5.243a4.393,4.393,0,0,1-5.743,0,5.629,5.629,0,0,1-1.775-2.8,6.374,6.374,0,0,1,0-3.458l2.407-8.482a3.413,3.413,0,0,0,0-1.858,3.016,3.016,0,0,0-.956-1.5l-6.3-5.243a5.621,5.621,0,0,1-1.774-2.8,6.357,6.357,0,0,1,0-3.458,5.615,5.615,0,0,1,1.774-2.8,4.482,4.482,0,0,1,2.872-1.069h7.787a2.4,2.4,0,0,0,1.544-.572,3.016,3.016,0,0,0,.952-1.506l2.407-8.482a5.616,5.616,0,0,1,1.775-2.8,4.393,4.393,0,0,1,5.743,0,5.621,5.621,0,0,1,1.774,2.8l2.407,8.482a3.017,3.017,0,0,0,.953,1.506,2.4,2.4,0,0,0,1.544.572h7.787a4.484,4.484,0,0,1,2.871,1.068,5.616,5.616,0,0,1,1.775,2.8,6.357,6.357,0,0,1,0,3.458,5.616,5.616,0,0,1-1.775,2.8l-6.3,5.243a3.018,3.018,0,0,0-.955,1.5,3.413,3.413,0,0,0,0,1.858l2.407,8.482A6.281,6.281,0,0,1,37.6,45.1a5.526,5.526,0,0,1-1.792,2.792,4.333,4.333,0,0,1-5.742,0Z" transform="translate(317.183 203.167)" fill="#3f3d56"/>
    <path id="Vector-20" data-name="Vector" d="M30.065,47.891l-6.3-5.243a2.355,2.355,0,0,0-3.086,0l-6.3,5.243a4.393,4.393,0,0,1-5.743,0,5.629,5.629,0,0,1-1.775-2.8,6.374,6.374,0,0,1,0-3.458l2.407-8.482a3.413,3.413,0,0,0,0-1.858,3.016,3.016,0,0,0-.956-1.5l-6.3-5.243a5.621,5.621,0,0,1-1.774-2.8,6.357,6.357,0,0,1,0-3.458,5.615,5.615,0,0,1,1.774-2.8,4.482,4.482,0,0,1,2.872-1.069h7.787a2.4,2.4,0,0,0,1.544-.572,3.016,3.016,0,0,0,.952-1.506l2.407-8.482a5.616,5.616,0,0,1,1.775-2.8,4.393,4.393,0,0,1,5.743,0,5.621,5.621,0,0,1,1.774,2.8l2.407,8.482a3.017,3.017,0,0,0,.953,1.506,2.4,2.4,0,0,0,1.544.572h7.787a4.484,4.484,0,0,1,2.871,1.068,5.616,5.616,0,0,1,1.775,2.8,6.365,6.365,0,0,1,0,3.458,5.616,5.616,0,0,1-1.775,2.8l-6.3,5.243a3.018,3.018,0,0,0-.955,1.5,3.413,3.413,0,0,0,0,1.858l2.407,8.482A6.281,6.281,0,0,1,37.6,45.1a5.519,5.519,0,0,1-1.792,2.791,4.332,4.332,0,0,1-5.742,0Z" transform="translate(381.577 202.959)" fill="#3f3d56"/>
    <path id="Vector-21" data-name="Vector" d="M2.151-2.463A9.069,9.069,0,0,1,0-8.411a9.069,9.069,0,0,1,2.151-5.947,6.905,6.905,0,0,1,5.192-2.463H379.026a6.905,6.905,0,0,1,5.193,2.463,9.069,9.069,0,0,1,2.151,5.947,9.069,9.069,0,0,1-2.151,5.947A6.905,6.905,0,0,1,379.026,0H7.343A6.905,6.905,0,0,1,2.151-2.463Z" transform="translate(673.269 38.819) rotate(180)" fill="#ccc"/>
    <path id="Vector-22" data-name="Vector" d="M2.151-2.463A9.069,9.069,0,0,1,0-8.411a9.069,9.069,0,0,1,2.151-5.947,6.905,6.905,0,0,1,5.192-2.463H379.026a6.905,6.905,0,0,1,5.193,2.463,9.069,9.069,0,0,1,2.151,5.947,9.069,9.069,0,0,1-2.151,5.947A6.905,6.905,0,0,1,379.026,0H7.343A6.905,6.905,0,0,1,2.151-2.463Z" transform="translate(694.734 82.814) rotate(180)" fill="#ccc"/>
    <path id="Vector-23" data-name="Vector" d="M2.151-2.463A9.069,9.069,0,0,1,0-8.411a9.069,9.069,0,0,1,2.151-5.947,6.905,6.905,0,0,1,5.192-2.463H379.026a6.905,6.905,0,0,1,5.193,2.463,9.069,9.069,0,0,1,2.151,5.947,9.069,9.069,0,0,1-2.151,5.947A6.905,6.905,0,0,1,379.026,0H7.343A6.905,6.905,0,0,1,2.151-2.463Z" transform="translate(673.269 126.808) rotate(180)" fill="#ccc"/>
  </g>
</svg>
