<svg id="Group" xmlns="http://www.w3.org/2000/svg" width="18" height="13.989" viewBox="0 0 18 13.989">
  <path id="Vector" d="M16.356,0A1.676,1.676,0,0,1,17.5.463a1.591,1.591,0,0,1,.061,2.247L8.754,13.472a1.656,1.656,0,0,1-.538.376,1.692,1.692,0,0,1-1.3.023,1.66,1.66,0,0,1-.551-.356L.527,7.809a1.619,1.619,0,0,1-.384-.525A1.583,1.583,0,0,1,.121,6.02a1.615,1.615,0,0,1,.365-.538,1.66,1.66,0,0,1,.551-.356,1.692,1.692,0,0,1,1.294.022,1.656,1.656,0,0,1,.538.375l4.624,4.514L15.16.493A.581.581,0,0,1,15.2.446h0A1.678,1.678,0,0,1,16.356,0Z" fill="#ff8e4b"/>
</svg>
