
<svg xmlns="http://www.w3.org/2000/svg" width="27.417" height="22.952" viewBox="0 0 27.417 22.952">
  <path id="Vector" d="M22,1.807a5.21,5.21,0,0,0-8.268.5,5.279,5.279,0,0,0-.9,3.023V6.5A12.377,12.377,0,0,1,6.92,5.17,12.458,12.458,0,0,1,2.333,1.185S-2.333,11.747,8.167,16.441A13.522,13.522,0,0,1,0,18.788c10.5,5.868,23.333,0,23.333-13.5a5.311,5.311,0,0,0-.093-.974A9.073,9.073,0,0,0,25.667.012h0A12.686,12.686,0,0,1,22,1.807Z" transform="translate(0.875 0.881)" fill="none" stroke="#7547c4" stroke-linecap="round" stroke-linejoin="round" stroke-width="1.75" stroke-dasharray="0 0"/>
</svg>
