<svg id="Group" xmlns="http://www.w3.org/2000/svg" width="25" height="30" viewBox="0 0 25 30">
  <path id="Vector" d="M5.707,10.732a1.065,1.065,0,0,1-1.414,0A.88.88,0,0,1,4,10.083V3.131l-2.291,2.1A1.049,1.049,0,0,1,1,5.5a1.049,1.049,0,0,1-.708-.269.865.865,0,0,1,0-1.3l4-3.666a1.01,1.01,0,0,1,.325-.2,1.084,1.084,0,0,1,.766,0,1.01,1.01,0,0,1,.325.2l4,3.666a.865.865,0,0,1,0,1.3,1.066,1.066,0,0,1-1.416,0L6,3.131v6.953A.88.88,0,0,1,5.707,10.732Z" transform="translate(7.29 11.249)" fill="#ff8e4b"/>
  <path id="Vector-2" data-name="Vector" d="M4.167,30A4.415,4.415,0,0,1,1.22,28.9,3.57,3.57,0,0,1,0,26.25V3.75A3.573,3.573,0,0,1,1.22,1.1,4.415,4.415,0,0,1,4.167,0H15.625L25,8.438V26.25A3.57,3.57,0,0,1,23.78,28.9,4.415,4.415,0,0,1,20.833,30Z" fill="#ff8e4b"/>
</svg>
