<svg xmlns="http://www.w3.org/2000/svg" width="129.471" height="124" viewBox="0 0 129.471 124">
  <path id="Vector" d="M64.66,119.165a45.42,45.42,0,0,1-15.035-12.73A49.447,49.447,0,0,1,41.034,88.9a43.818,43.818,0,0,1-1.378-8.887c-.03-1.984.34-5.29.34-5.29l-25.38,24.49c-4.432,4.221-10.395,4.214-13.2-.025C-1.346,95.017.072,88.43,4.459,84.47c.055-.051.119-.105.178-.157l46.5-42.086-26.061.059.007-.018a6.323,6.323,0,0,1-6.475-7.763,9.612,9.612,0,0,1,9.144-7.448h.069l51.415-.065L62.371,10.822l.012-.014c-2.626-2.538-2.288-6.564.662-9A7.88,7.88,0,0,1,73.079,1.8c.039.03.068.065.105.1l40.444,36.614-.009.008a47.432,47.432,0,0,1,9.994,12.992,50.634,50.634,0,0,1,5.478,17.675,52.648,52.648,0,0,1,.267,9.741,51.579,51.579,0,0,1-1.615,9.809,49.913,49.913,0,0,1-8.589,17.571,45.8,45.8,0,0,1-15.024,12.78A42.216,42.216,0,0,1,84.4,124h-.079A42.154,42.154,0,0,1,64.66,119.165Z" transform="translate(0 0)" fill="#ea7600"/>
</svg>
